<?xml version="1.0" standalone="no"?><!DOCTYPE svg PUBLIC "-//W3C//DTD SVG 1.1//EN" "http://www.w3.org/Graphics/SVG/1.1/DTD/svg11.dtd"><svg t="1533288868654" class="icon" style="" viewBox="0 0 1024 1024" version="1.1" xmlns="http://www.w3.org/2000/svg" p-id="14757" xmlns:xlink="http://www.w3.org/1999/xlink" width="200" height="200"><defs><style type="text/css"></style></defs><path d="M820.471049 467.171002c-12.354376 0-22.36538 9.580193-22.365381 21.395286 0 0.086981 0.00921 0.164752 0.017397 0.24764h-0.109494v365.558743c0 23.632233-20.027126 42.792619-44.728714 42.792619H171.879114c-24.700565 0-44.725644-19.161409-44.725644-42.792619V169.626305c0-23.63121 20.025079-42.795689 44.725644-42.795688h355.927385v-0.00614c12.282744-0.064468 22.234397-9.614985 22.234397-21.392216s-9.951653-21.325701-22.234397-21.393239v-0.004094H171.879114c-49.317219 0-89.447195 38.395472-89.447195 85.592401v684.746366c0 47.195905 40.129976 85.5924 89.447195 85.5924h581.411883c49.318242 0 89.444125-38.395472 89.444125-85.5924V490.401076c0.054235-0.604774 0.096191-1.214664 0.09619-1.833765 0-11.816117-10.013051-21.396309-22.360263-21.396309z m101.443413-364.329752c-26.201755-25.077142-68.672032-25.072025-94.874811 0l-5.328355 5.095041-0.033769-0.032746-379.494127 363.140671-34.727943 124.016525 129.606847-33.227776L886.090559 227.842195l0.032745 0.035816 35.791158-34.256199c26.202779-25.068955 26.202779-65.719794 0-90.780562z m-68.613704 95.852068L513.908978 523.468193l-43.203988 11.074219 11.574616-41.34157 339.176886-324.558957 10.398838 9.525957 21.445428 20.525476zM340.781942 526.617929h-89.452311c-12.346189 0-22.357194 9.585309-22.357194 21.401426s10.011005 21.395286 22.357194 21.395286h89.452311c12.349259 0 22.360264-9.579169 22.360264-21.395286s-10.011005-21.401426-22.360264-21.401426zM220.590536 712.165856c0 11.822257 10.009981 21.403472 22.361287 21.403472h439.268512c12.350283 0 22.361287-9.581216 22.361287-21.403472 0-11.824303-10.009981-21.405519-22.361287-21.40552H242.950799c-12.350283 0-22.360264 9.581216-22.360263 21.40552z" fill="#ffffff" p-id="14758"></path></svg>