<?xml version="1.0" encoding="utf-8"?>
<!-- Generator: Adobe Illustrator 19.0.0, SVG Export Plug-In . SVG Version: 6.00 Build 0)  -->
<svg version="1.1" id="图层_1" xmlns="http://www.w3.org/2000/svg" xmlns:xlink="http://www.w3.org/1999/xlink" x="0px" y="0px"
	 viewBox="0 0 500 500" style="enable-background:new 0 0 500 500;" xml:space="preserve">
<style type="text/css">
	.st0{fill:#FFFFFF;}
</style>
<path id="XMLID_7_" class="st0" d="M316.2,234.3c25-19.7,41.2-50,41.2-84.2c0-59.1-48-107.2-107.2-107.2
	C191.1,42.8,143,90.9,143,150c0,34.2,16.2,64.6,41.2,84.2c-65.9,26.4-112.6,90.7-112.6,165.9V453h357.3v-52.9
	C428.8,324.9,382.1,260.6,316.2,234.3z M250.2,78.5c39.4,0,71.4,32,71.4,71.4s-32,71.4-71.4,71.4s-71.4-32-71.4-71.4
	C178.7,110.6,210.8,78.5,250.2,78.5z M393.1,417.9H107.3V400c0-78.8,64.1-142.9,142.9-142.9S393.1,321.3,393.1,400V417.9
	L393.1,417.9z M130.6,240.4c0.5-1,0.5-2.3,0.7-3.3c0.2-0.7,0.3-1.3,0.4-2c0.2-1.4,0.1-2.8-0.2-4.1c-0.1-0.7,0.1-1.4-0.1-2.2
	c-0.1-0.4-0.4-0.7-0.5-1.1c-0.3-0.8-0.7-1.5-1-2.3c-0.7-1.6-1.6-3-2.6-4.2c-0.2-0.2-0.3-0.3-0.5-0.4c-1.7-1.7-3.5-3-5.7-3.9
	c-19.3-8.6-31.8-27.8-31.8-48.9c0-24.9,16.9-46.3,41-52.1c9.6-2.3,15.5-12,13.2-21.6c-2.3-9.6-12-15.4-21.6-13.2
	c-40.2,9.7-68.3,45.4-68.3,86.8c0,22.6,8.6,43.8,23.2,60C30.4,252,0,300.1,0,354.7v27.7c0,9.8,8,17.8,17.8,17.8s17.8-8,17.8-17.8
	v-27.7c0-49.4,33.2-91.8,80.8-103.8C122.6,249.9,128,246.4,130.6,240.4z M423.3,227.8c14.6-16.1,23.2-37.3,23.2-60
	c0-40.4-27.1-75.8-66-86.2c-9.5-2.5-19.3,3-21.9,12.6c-2.5,9.6,3,19.3,12.6,21.9c23.3,6.3,39.7,27.6,39.7,51.8
	c0,21.1-12.4,40.3-31.8,48.9c-2.2,1-4.1,2.3-5.7,3.9c-0.2,0.2-0.3,0.3-0.4,0.4c-1.1,1.2-1.9,2.7-2.7,4.3c-0.3,0.8-0.8,1.5-1,2.3
	c-0.1,0.4-0.4,0.7-0.5,1.1c-0.2,0.7,0,1.4-0.1,2.2c-0.2,1.4-0.3,2.7-0.2,4.2c0.1,0.7,0.3,1.4,0.4,2c0.3,1.1,0.3,2.3,0.7,3.4
	c2.6,5.9,8,9.5,13.9,10.4c47.7,12,80.8,54.4,80.8,103.8v27.7c0,9.8,8,17.8,17.8,17.8s17.8-8,17.8-17.8v-27.7
	C500.2,300.1,469.9,251.8,423.3,227.8L423.3,227.8z"/>
</svg>
