<?xml version="1.0" standalone="no"?><!DOCTYPE svg PUBLIC "-//W3C//DTD SVG 1.1//EN" "http://www.w3.org/Graphics/SVG/1.1/DTD/svg11.dtd"><svg t="1533288899289" class="icon" style="" viewBox="0 0 1024 1024" version="1.1" xmlns="http://www.w3.org/2000/svg" p-id="15491" xmlns:xlink="http://www.w3.org/1999/xlink" width="200" height="200"><defs><style type="text/css"></style></defs><path d="M361.685333 588.842667c-123.178667 0-224-100.778667-224-224s100.778667-224 224-224 224 100.778667 224 224-98.56 224-224 224z m0-394.24a170.154667 170.154667 0 0 0-170.24 170.24 170.154667 170.154667 0 0 0 170.24 170.24 170.154667 170.154667 0 0 0 170.24-170.24 170.197333 170.197333 0 0 0-170.24-170.24z m0 0" p-id="15492" fill="#ffffff"></path><path d="M675.242667 906.922667a25.898667 25.898667 0 0 1-26.88-26.88c0-161.28-127.658667-291.2-286.72-291.2-156.8 0-286.72 129.92-286.72 291.2 0 15.658667-11.178667 26.88-26.88 26.88a25.856 25.856 0 0 1-26.88-26.88c0-190.378667 152.32-344.96 340.48-344.96s340.48 154.581333 340.48 344.96a25.813333 25.813333 0 0 1-26.88 26.88z m0-320.298667a25.898667 25.898667 0 0 1-26.88-26.88c0-15.701333 11.221333-26.88 26.88-26.88 89.6 0 161.28-71.68 161.28-161.28 0-89.6-71.68-161.28-161.28-161.28-17.92 0-35.84 2.261333-53.76 8.96-13.44 4.48-29.098667-2.218667-33.578667-15.658667-4.48-13.44 2.218667-29.098667 15.658667-33.578666 22.4-8.96 47.061333-11.178667 71.68-11.178667a215.04 215.04 0 0 1 215.04 215.04c0.042667 116.394667-96.298667 212.736-215.04 212.736z m0 0" p-id="15493" fill="#ffffff"></path><path d="M975.445333 891.264a25.856 25.856 0 0 1-26.88-26.88c0-152.32-120.96-275.541333-271.018666-275.541333-17.92 0-38.058667 2.261333-56.021334 6.698666-15.701333 2.261333-29.098667-6.698667-31.36-20.138666-2.218667-13.44 6.698667-29.098667 20.138667-31.36a341.845333 341.845333 0 0 1 67.2-6.698667c179.2 0 324.778667 147.84 324.778667 329.258667 0 11.221333-13.44 24.661333-26.837334 24.661333z m0 0" p-id="15494" fill="#ffffff"></path></svg>