<?xml version="1.0" standalone="no"?><!DOCTYPE svg PUBLIC "-//W3C//DTD SVG 1.1//EN" "http://www.w3.org/Graphics/SVG/1.1/DTD/svg11.dtd"><svg t="1533288789411" class="icon" style="" viewBox="0 0 1024 1024" version="1.1" xmlns="http://www.w3.org/2000/svg" p-id="10375" xmlns:xlink="http://www.w3.org/1999/xlink" width="200" height="200"><defs><style type="text/css"></style></defs><path d="M877.376 58.176H146.624c-48.896 0-88.448 39.552-88.448 88.448v730.752c0 48.896 39.552 88.448 88.448 88.448h730.752c48.896 0 88.448-39.552 88.448-88.448V146.624c0-48.896-39.552-88.448-88.448-88.448z m30.272 819.2a30.848 30.848 0 0 1-30.272 30.272H146.624a30.848 30.848 0 0 1-30.272-30.272V351.424h791.232v525.952z m0-584.128H116.352V146.624c0-16.256 13.952-30.272 30.272-30.272h730.752c16.32 0 30.272 13.952 30.272 30.272v146.624z m-409.408 464c-0.128 1.088-113.984-99.072-145.28-130.368-38.08-38.272 12.096-76.928 43.392-45.568 26.304 26.304 102.592 92.544 101.888 91.776 0 0 145.28-122.496 170.944-148.032 35.328-35.072 74.112 8.896 44.8 38.208-36.928 36.992-217.92 196.096-215.744 193.984z" fill="#ffffff" p-id="10376"></path></svg>