<?xml version="1.0" standalone="no"?><!DOCTYPE svg PUBLIC "-//W3C//DTD SVG 1.1//EN" "http://www.w3.org/Graphics/SVG/1.1/DTD/svg11.dtd"><svg t="1533606490117" class="icon" style="" viewBox="0 0 1024 1024" version="1.1" xmlns="http://www.w3.org/2000/svg" p-id="3905" xmlns:xlink="http://www.w3.org/1999/xlink" width="200" height="200"><defs><style type="text/css"></style></defs><path d="M819.2 135.168c18.486272 0 35.941376 7.274496 49.149952 20.482048C881.557504 168.858624 888.832 186.313728 888.832 204.8l0 614.4c0 18.486272-7.274496 35.941376-20.482048 49.149952C855.141376 881.557504 837.686272 888.832 819.2 888.832L204.8 888.832c-18.486272 0-35.941376-7.274496-49.149952-20.482048C142.442496 855.141376 135.168 837.686272 135.168 819.2L135.168 204.8c0-18.486272 7.274496-35.941376 20.482048-49.149952C168.858624 142.442496 186.313728 135.168 204.8 135.168L819.2 135.168M819.2 102.4 204.8 102.4c-56.32 0-102.4 46.08-102.4 102.4l0 614.4c0 56.32 46.08 102.4 102.4 102.4l614.4 0c56.32 0 102.4-46.08 102.4-102.4L921.6 204.8C921.6 148.48 875.52 102.4 819.2 102.4L819.2 102.4z" p-id="3906" fill="#3096f8"></path><path d="M818.455552 540.16 818.827264 481.792 540.672 481.792 540.672 204.8 482.304 205.31712 482.304 481.792 205.08672 481.792 204.432384 540.16 482.304 540.16 482.304 819.2 540.672 818.68288 540.672 540.16Z" p-id="3907" fill="#3096f8"></path></svg>