<?xml version="1.0" standalone="no"?><!DOCTYPE svg PUBLIC "-//W3C//DTD SVG 1.1//EN" "http://www.w3.org/Graphics/SVG/1.1/DTD/svg11.dtd"><svg t="1533606607957" class="icon" style="" viewBox="0 0 1024 1024" version="1.1" xmlns="http://www.w3.org/2000/svg" p-id="4671" xmlns:xlink="http://www.w3.org/1999/xlink" width="200" height="200"><defs><style type="text/css"></style></defs><path d="M937.024 153.792l-67.392-67.456c-12.416-12.416-32.512-12.416-44.928 0l-65.792 65.792 110.784 114.048 67.392-67.456C949.44 186.304 949.44 166.208 937.024 153.792L937.024 153.792 937.024 153.792 937.024 153.792zM375.168 580.928l67.392 67.456c12.416 12.416-19.648-19.648 22.464 22.464l359.552-359.68-113.152-111.616L352.704 558.464C364.608 570.432 362.752 568.512 375.168 580.928L375.168 580.928 375.168 580.928 375.168 580.928zM214.784 786.432c-7.296 14.656 6.784 29.696 22.4 22.464l171.84-104.064-90.24-90.304L214.784 786.432 214.784 786.432 214.784 786.432zM510.016 715.84c-9.28 9.28-20.928 13.952-32.896 16.32l-278.336 137.6c-31.296 14.528-56.384-13.568-44.864-44.864l137.6-278.464c2.304-12.032 6.976-23.616 16.256-32.96l494.4-494.656c24.832-24.832 65.088-24.832 89.92 0l112.384 112.384c24.832 24.832 24.832 65.088 0 89.92L510.016 715.84 510.016 715.84 510.016 715.84 510.016 715.84zM127.104 1024C56.896 1024 0 967.04 0 896.832L0 133.76c0-70.208 57.728-133.184 128-133.184l511.872 0 0 73.152L129.856 71.424c-35.136 0-59.008 22.592-59.008 57.728l0 766.976c0 35.136 22.016 57.28 57.088 57.28l767.488 0c35.072 0 57.024-22.208 57.024-57.28L952.448 384.32l71.232 0 0 511.744c0 70.272-63.616 127.936-133.824 127.936L127.104 1024 127.104 1024 127.104 1024zM127.104 1024" p-id="4672" fill="#3096f8"></path></svg>