<?xml version="1.0" encoding="utf-8"?>
<!-- Generator: Adobe Illustrator 19.0.0, SVG Export Plug-In . SVG Version: 6.00 Build 0)  -->
<svg version="1.1" id="图层_1" xmlns="http://www.w3.org/2000/svg" xmlns:xlink="http://www.w3.org/1999/xlink" x="0px" y="0px"
	 viewBox="-495 320.9 200 200" style="enable-background:new -495 320.9 200 200;" xml:space="preserve">
<style type="text/css">
	.st0{fill:#DDDDDD;}
</style>
<path class="st0" d="M-312,350.9l-13.2-13.2c-2.4-2.4-6.4-2.4-8.8,0l-12.8,12.9l21.6,22.3l13.2-13.2
	C-309.6,357.3-309.6,353.4-312,350.9L-312,350.9L-312,350.9L-312,350.9z M-421.7,434.4l13.2,13.2c2.4,2.4-3.8-3.8,4.4,4.4l70.2-70.2
	l-22.1-21.8l-70.1,70.1C-423.8,432.3-424.1,431.9-421.7,434.4L-421.7,434.4L-421.7,434.4L-421.7,434.4z M-453,474.5
	c-1.4,2.9,1.3,5.8,4.4,4.4l33.6-20.3l-17.6-17.6L-453,474.5L-453,474.5L-453,474.5z M-395.4,460.7c-1.8,1.8-4.1,2.7-6.4,3.2
	l-54.4,26.9c-6.1,2.8-11-2.7-8.8-8.8l26.9-54.4c0.5-2.3,1.4-4.6,3.2-6.4l96.6-96.6c4.9-4.9,12.7-4.9,17.6,0l22,21.9
	c4.9,4.9,4.9,12.7,0,17.6L-395.4,460.7L-395.4,460.7L-395.4,460.7L-395.4,460.7z M-470.2,520.9c-13.7,0-24.8-11.1-24.8-24.8V347
	c0-13.7,11.3-26,25-26h100v14.3l-99.6-0.5c-6.9,0-11.5,4.4-11.5,11.3v149.8c0,6.9,4.3,11.2,11.1,11.2h149.9
	c6.9,0,11.1-4.3,11.1-11.2V396h13.9v99.9c0,13.7-12.4,25-26.1,25H-470.2L-470.2,520.9L-470.2,520.9z"/>
</svg>
