<?xml version="1.0" standalone="no"?><!DOCTYPE svg PUBLIC "-//W3C//DTD SVG 1.1//EN" "http://www.w3.org/Graphics/SVG/1.1/DTD/svg11.dtd"><svg t="1533289155829" class="icon" style="" viewBox="0 0 1024 1024" version="1.1" xmlns="http://www.w3.org/2000/svg" p-id="27609" xmlns:xlink="http://www.w3.org/1999/xlink" width="200" height="200"><defs><style type="text/css"></style></defs><path d="M562.500673 959.056895l-102.140285 0c-26.308179 0-47.730071-21.421892-47.730071-47.733141l0-66.049299c0-6.830569-6.404873-15.678074-12.884448-17.851577l-31.125905-12.727882c-9.544377-4.657067-18.472723-1.630127-22.89443 2.87242l-46.803979 46.723138c-17.926278 17.929348-49.517787 17.929348-67.444065 0l-72.260767-72.258721c-9.003048-8.925277-13.970176-20.956288-13.970176-33.761941s4.967128-24.75787 14.049994-33.761941l46.644343-46.645366c4.736884-4.734838 6.481621-15.678074 3.494591-21.731954l-12.883425-31.200606c-2.639107-7.684006-11.486612-14.125719-18.317181-14.125719l-66.12707 0c-26.313296 0-47.734164-21.344121-47.734164-47.65537l0-102.217033c0-26.311249 21.421892-47.733141 47.734164-47.733141l66.12707 0c6.830569 0 15.678074-6.364965 17.851577-12.884448l12.728906-31.045063c3.64604-7.450692 1.90028-18.23941-2.949168-23.050995l-46.648436-46.724161c-9.003048-8.925277-13.970176-20.877493-13.970176-33.68417s4.967128-24.836665 14.049994-33.761941l72.180949-72.258721c17.888416-18.006096 49.517787-18.006096 67.444065 0l46.724161 46.724161c4.581342 4.501524 16.028045 6.363941 21.694091 3.492544l31.082926-12.883425c7.841595-2.639107 14.205537-11.487635 14.205537-18.317181L412.629293 112.676246c0-26.311249 21.421892-47.733141 47.730071-47.733141l102.140285 0c26.387997 0 47.809889 21.421892 47.809889 47.733141l0 66.12707c0 6.829546 6.364965 15.678074 12.809747 17.851577l31.120788 12.806677c9.392928 4.579295 18.396999 1.630127 22.973224-2.949168l46.723138-46.724161c18.047028-18.006096 49.51881-18.006096 67.523883 0l72.180949 72.258721c9.004071 8.925277 13.970176 20.956288 13.970176 33.761941s-4.967128 24.758893-14.045901 33.761941l-46.648436 46.645366c-4.771677 4.812609-6.519484 15.600303-3.490497 21.731954l12.922311 31.123858c2.638083 7.839549 11.486612 14.125719 18.355043 14.125719l66.12707 0c26.273387 0 47.654346 21.421892 47.654346 47.733141l0 102.217033c0 26.311249-21.381983 47.65537-47.654346 47.65537l-66.12707 0c-6.868431 0-15.715937 6.363941-17.851577 12.806677l-12.843516 31.277354c-3.570315 7.296173-1.823532 18.23941 2.90926 22.974247l46.723138 46.723138c9.004071 8.9263 13.970176 20.877493 13.970176 33.68417s-4.967128 24.836665-14.045901 33.839713l-72.106248 72.180949c-18.081821 18.007119-49.517787 17.929348-67.444065 0.077771l-46.802956-46.800909c-4.577249-4.501524-15.988136-6.364965-21.692045-3.492544l-31.084972 12.883425c-7.761778 2.639107-14.126742 11.487635-14.126742 18.317181l0 66.049299C610.310561 937.636027 588.889693 959.056895 562.500673 959.056895L562.500673 959.056895zM359.928001 772.861216c9.003048 0 17.735943 1.940189 25.186635 5.665023l28.522614 11.719926c21.50171 7.140631 38.73214 31.046087 38.73214 55.028291l0 66.049299c0 4.423753 3.570315 7.995091 7.992021 7.995091l102.140285 0c4.425799 0 8.071839-3.570315 8.071839-7.995091l0-66.049299c0-23.983227 17.155728-47.810912 39.893592-55.493895l28.561499-11.874445c17.154705-8.692986 49.983391-4.734838 66.281589 11.564383l46.724161 46.724161c3.960195 3.958148 7.29515 4.034896 11.410887 0l72.101131-72.258721c2.01796-2.01796 2.328022-4.423753 2.328022-5.666046 0-1.24127-0.311085-3.569292-2.248204-5.510504l-46.802956-46.800909c-16.995069-16.997116-21.652136-46.025243-10.94119-67.523883l11.756765-28.639271c7.024997-21.499663 30.930453-38.730093 55.067176-38.730093l66.12707 0c4.270257 0 7.916297-3.647063 7.916297-7.916297l0-102.217033c0-4.269233-3.64604-7.995091-7.916297-7.995091l-66.12707 0c-24.136723 0-48.041156-17.23043-55.57269-40.049135l-11.834536-28.483728c-10.126638-20.179598-5.432733-49.206702 11.44875-66.204841l46.798862-46.800909c2.01796-2.01796 2.328022-4.347005 2.328022-5.588275 0-1.242294-0.311085-3.648087-2.248204-5.588275l-72.260767-72.336492c-3.956102-4.03592-7.296173-4.03592-11.33107 0l-46.724161 46.724161c-16.373922 16.299221-46.798862 21.343097-67.560722 10.943236l-28.52466-11.719926c-21.496593-7.140631-38.651298-30.968315-38.651298-55.028291L570.573535 112.676246c0-4.26821-3.725858-7.994068-8.071839-7.994068l-102.140285 0c-4.345981 0-7.992021 3.725858-7.992021 7.994068l0 66.12707c0 24.059975-17.23043 47.88766-40.049135 55.493895l-28.486798 11.874445c-17.150612 8.770757-50.059116 4.657067-66.282612-11.564383l-46.723138-46.724161c-3.996011-4.03592-7.296173-3.958148-11.252275 0l-72.260767 72.258721c-2.01796 2.01796-2.328022 4.423753-2.328022 5.666046 0 1.24127 0.310062 3.570315 2.25332 5.588275l46.798862 46.723138c16.959254 17.075911 21.656229 46.103014 10.945283 67.602677l-11.642155 28.483728c-7.220449 21.576411-31.125905 38.72907-55.106062 38.72907l-66.12707 0c-4.345981 0-7.996115 3.725858-7.996115 7.995091l0 102.217033c0 4.269233 3.650133 7.916297 7.996115 7.916297l66.12707 0c23.981181 0 47.885614 17.23043 55.571666 39.972387l11.797697 28.717042c10.089799 20.180622 5.432733 49.207725-11.56643 66.204841l-46.724161 46.723138c-2.01796 2.018983-2.328022 4.347005-2.328022 5.588275 0 1.242294 0.310062 3.648087 2.25332 5.588275l72.336492 72.336492c3.956102 3.958148 7.29515 3.958148 11.252275 0l46.723138-46.724161C327.876004 779.069615 343.74646 772.861216 359.928001 772.861216L359.928001 772.861216zM511.43053 666.529469c-85.140099 0-154.451698-69.308529-154.451698-154.529469 0-85.143169 69.311599-154.529469 154.451698-154.529469 85.219917 0 154.531516 69.387323 154.531516 154.529469C665.962046 597.219917 596.650447 666.529469 511.43053 666.529469L511.43053 666.529469zM511.43053 397.208581c-63.253626 0-114.713648 51.535747-114.713648 114.791419 0 63.333444 51.461045 114.791419 114.713648 114.791419 63.295582 0 114.793466-51.457975 114.793466-114.791419C626.223996 448.744327 574.726112 397.208581 511.43053 397.208581L511.43053 397.208581z" p-id="27610" fill="#ffffff"></path></svg>