<?xml version="1.0" standalone="no"?><!DOCTYPE svg PUBLIC "-//W3C//DTD SVG 1.1//EN" "http://www.w3.org/Graphics/SVG/1.1/DTD/svg11.dtd"><svg t="1533606928161" class="icon" style="" viewBox="0 0 1024 1024" version="1.1" xmlns="http://www.w3.org/2000/svg" p-id="6063" xmlns:xlink="http://www.w3.org/1999/xlink" width="200" height="200"><defs><style type="text/css"></style></defs><path d="M511.924 442.862l-366.922-367.072c-17.983-17.983-48.812-17.983-69.364 0-17.983 17.983-17.983 48.812 0 69.364l367.072 367.072-367.072 366.922c-17.983 17.983-17.983 48.812 0 69.364 17.983 17.983 48.812 17.983 69.364 0l366.922-367.072 367.072 367.072c17.983 17.983 48.812 17.983 69.364 0 17.983-17.983 17.983-48.812 0-69.364l-367.072-367.223 367.072-367.072c17.983-17.983 17.983-48.812 0-69.364-17.983-17.983-48.812-17.983-69.364 0l-367.072 367.375z" p-id="6064" fill="#dddddd"></path></svg>