<?xml version="1.0" standalone="no"?><!DOCTYPE svg PUBLIC "-//W3C//DTD SVG 1.1//EN" "http://www.w3.org/Graphics/SVG/1.1/DTD/svg11.dtd"><svg t="1533288936316" class="icon" style="" viewBox="0 0 1024 1024" version="1.1" xmlns="http://www.w3.org/2000/svg" p-id="18133" xmlns:xlink="http://www.w3.org/1999/xlink" width="200" height="200"><defs><style type="text/css"></style></defs><path d="M744.534 626.925c-5.054-4.9-11.315-8.456-18.238-10.526-0.641-0.346-1.25-0.75-1.893-1.093 0.044 0.177 0.063 0.36 0.107 0.538-3.504-0.886-7.112-1.501-10.891-1.501-24.573 0-44.492 19.92-44.492 44.492 0 19.107 12.106 35.265 29.017 41.57-0.201 0.18-0.349 0.414-0.552 0.594 106.632 63.073 178.364 178.905 178.364 311.77 0 3.79-0.452 7.462-0.567 11.224h88.264c0.07-3.232 0.486-6.373 0.486-9.62 0-164.598-88.124-308.382-219.605-387.448z" p-id="18134" fill="#ffffff"></path><path d="M823.045 325.476C823.045 145.72 677.325 0 497.569 0S172.094 145.72 172.094 325.476c0 117.049 61.994 219.361 154.732 276.713C169.552 672.971 59.86 830.716 59.86 1014.373c0 3.247 0.417 6.388 0.486 9.62h91.47c-0.115-3.76-0.567-7.434-0.567-11.224 0-200.121 162.231-362.352 362.352-362.352 0.754 0 1.404-0.321 2.138-0.384 171.252-9.48 307.305-150.937 307.305-324.557zM497.569 575.577c-138.127 0-250.101-111.973-250.101-250.102 0-138.127 111.974-250.102 250.101-250.102S747.672 187.35 747.672 325.476c0 138.129-111.975 250.101-250.103 250.101z" p-id="18135" fill="#ffffff"></path></svg>