<?xml version="1.0" standalone="no"?><!DOCTYPE svg PUBLIC "-//W3C//DTD SVG 1.1//EN" "http://www.w3.org/Graphics/SVG/1.1/DTD/svg11.dtd"><svg t="1533551715626" class="icon" style="" viewBox="0 0 1024 1024" version="1.1" xmlns="http://www.w3.org/2000/svg" p-id="2290" xmlns:xlink="http://www.w3.org/1999/xlink" width="200" height="200"><defs><style type="text/css"></style></defs><path d="M328.072411 461.458286c-16.822857-16.822857-39.643429-16.822857-51.126857 0-16.822857 16.822857-16.822857 39.716571 0 51.126857L430.472411 671.524571c5.412571 5.412571 16.822857 11.410286 28.306286 11.410286 11.410286 0 16.822857-5.412571 28.233143-11.410286l295.570286-289.572571c16.822857-16.822857 16.822857-39.716571 0-51.2-16.822857-16.822857-39.716571-16.822857-51.2 0L458.85184 592.091429 328.072411 461.531429z m602.624-318.464L527.386697 0.950857h-22.893714L100.598126 142.994286c-16.822857 5.412571-28.306286 16.822857-28.306286 34.377143v431.542857C83.775269 858.697143 481.672411 1018.148571 498.495269 1023.634286h22.820571c16.822857-5.412571 414.72-158.939429 426.203429-414.72v-431.542857c11.410286-16.896 0-28.379429-16.822858-34.377143z m-45.787428 460.507428c-5.412571 181.76-300.982857 312.32-369.590857 340.699429-113.737143-45.787429-358.180571-181.833143-369.590857-340.699429V205.531429L515.318126 74.971429l369.590857 125.220571V603.428571z" fill="#999999" p-id="2291"></path></svg>