<?xml version="1.0" standalone="no"?><!DOCTYPE svg PUBLIC "-//W3C//DTD SVG 1.1//EN" "http://www.w3.org/Graphics/SVG/1.1/DTD/svg11.dtd"><svg t="1533289133801" class="icon" style="" viewBox="0 0 1024 1024" version="1.1" xmlns="http://www.w3.org/2000/svg" p-id="26915" xmlns:xlink="http://www.w3.org/1999/xlink" width="200" height="200"><defs><style type="text/css"></style></defs><path d="M173.568 859.648c-53.248 0-96.768-45.568-96.768-100.864v-657.92C76.8 45.568 120.32 0 173.568 0h517.12c53.248 0 96.768 45.568 96.768 100.864v657.408c0 55.808-43.52 100.864-96.768 100.864h-517.12z m0-799.232c-21.504 0-38.912 18.432-38.912 40.96v657.408c0 22.528 17.408 40.96 38.912 40.96h517.12c21.504 0 38.912-18.432 38.912-40.96v-657.92c0-22.528-17.408-40.96-38.912-40.96h-517.12z" fill="#ffffff" p-id="26916"></path><path d="M274.432 663.04c-15.872 0-28.672-13.312-28.672-30.208s12.8-30.208 28.672-30.208h315.904c15.872 0 28.672 13.312 28.672 30.208s-12.8 30.208-28.672 30.208H274.432z m0-203.264c-15.872 0-28.672-13.312-28.672-30.208 0-16.384 12.8-30.208 28.672-30.208h315.904c15.872 0 28.672 13.312 28.672 30.208 0 16.384-12.8 30.208-28.672 30.208H274.432z m0-202.752c-15.872 0-28.672-13.312-28.672-30.208 0-16.384 12.8-30.208 28.672-30.208h259.072c15.872 0 28.672 13.312 28.672 30.208 0 16.384-12.8 30.208-28.672 30.208H274.432z" fill="#ffffff" p-id="26917"></path><path d="M296.448 1024c-15.872 0-28.672-13.312-28.672-30.208s12.8-30.208 28.672-30.208h553.984c21.504 0 38.912-18.432 38.912-40.96v-701.44c0-16.384 12.8-30.208 28.672-30.208s28.672 13.312 28.672 30.208v701.44c0 55.808-43.52 100.864-96.768 100.864H296.448z" fill="#ffffff" p-id="26918"></path></svg>